# xmcd
#
# Track frame offsets:
#	150
#	17965
#	28456
#	34756
#	44127
#	58311
#	67703
#	79179
#	90933
#	100590
#
# Disc length: 1495 seconds
#
# Revision: 2
# Processed by: cddbd v1.5.2PL0 Copyright (c) Steve Scherf et al.
# Submitted via: audiograbber 1.83.01
#
DISCID=7f05d50a
DTITLE=Various Artist - Best of Southern Gospel - Disc 4
DYEAR=2009
DGENRE=Gospel
TTITLE0=Masters V - Amazing Grace
TTITLE1=The Stamps Quartet - Roll Jordan Roll
TTITLE2=Blackwood Brothers - He Bought my Soul at Calvary
TTITLE3=The Statesman Quartet - I Surrender All
TTITLE4=Tommy Overstreet - When the Roll is Called Up Yonder
TTITLE5=Masters V - Where the Soul Never Dies
TTITLE6=The Statesman Quartet - Softley and Tenderly
TTITLE7=The Oak Ridge Boys - Little is Much
TTITLE8=Blackwood Brothers - How Beautiful Heaven Must Be
TTITLE9=Blackwood Brothers - Life's Railway to Heaven
EXTD=
EXTT0=
EXTT1=
EXTT2=
EXTT3=
EXTT4=
EXTT5=
EXTT6=
EXTT7=
EXTT8=
EXTT9=
PLAYORDER=
